<svg width="161" height="59" viewBox="0 0 161 59" fill="none" xmlns="http://www.w3.org/2000/svg">
<rect x="0.842651" y="6.10352e-05" width="159.792" height="59" rx="6" fill="black"/>
<g clip-path="url(#clip0_3646:107)">
<path fill-rule="evenodd" clip-rule="evenodd" d="M18.1915 19.739C17.8846 20.0688 17.7083 20.5764 17.7083 21.236V44.6976C17.7083 45.3572 17.8846 45.8648 18.2029 46.1831L18.2861 46.2533L31.4322 33.1073V32.8119L18.2746 19.6687L18.1915 19.739Z" fill="#00D2FF"/>
<path fill-rule="evenodd" clip-rule="evenodd" d="M35.8054 37.5069L31.4205 33.1206V32.8138L35.8069 28.4275L35.9015 28.4863L41.0894 31.4344C42.5749 32.2718 42.5749 33.6512 41.0894 34.5L35.9015 37.4481C35.9001 37.4481 35.8054 37.5069 35.8054 37.5069Z" fill="#FFDB00"/>
<path fill-rule="evenodd" clip-rule="evenodd" d="M35.8999 37.4482L31.4204 32.9672L18.1912 46.1964C18.6744 46.7155 19.4875 46.7743 20.3966 46.2666L35.8999 37.4482Z" fill="#F3324A"/>
<path fill-rule="evenodd" clip-rule="evenodd" d="M35.8993 28.4877L20.3959 19.6807C19.4883 19.1616 18.6738 19.2318 18.1906 19.7509L31.4183 32.9672L35.8993 28.4877Z" fill="#00F076"/>
<path opacity="0.2" fill-rule="evenodd" clip-rule="evenodd" d="M35.8056 37.3535L20.4083 46.1018C19.548 46.5965 18.7809 46.5621 18.2862 46.1132L18.203 46.1964L18.2862 46.2667C18.7809 46.714 19.548 46.7499 20.4083 46.2552L35.9117 37.4481L35.8056 37.3535Z" fill="white"/>
<path opacity="0.12" fill-rule="evenodd" clip-rule="evenodd" d="M41.088 34.3466L35.794 37.3535L35.8886 37.4481L41.0765 34.5C41.8193 34.0756 42.1849 33.5221 42.1849 32.9672C42.1376 33.4748 41.7605 33.958 41.088 34.3466Z" fill="white"/>
<path opacity="0.25" fill-rule="evenodd" clip-rule="evenodd" d="M20.3968 19.8341L41.0881 31.5893C41.7606 31.9664 42.1377 32.4611 42.1965 32.9687C42.1965 32.4152 41.8308 31.8603 41.0881 31.4358L20.3968 19.6807C18.9113 18.8318 17.7083 19.5387 17.7083 21.2364V21.3899C17.7083 19.6921 18.9113 18.9967 20.3968 19.8341Z" fill="#00F076"/>
<path fill-rule="evenodd" clip-rule="evenodd" d="M47.2467 32.2231C47.2467 28.4648 50.4056 25.4048 54.1639 25.4048C56.2416 25.4048 57.72 26.2207 58.8355 27.2833L57.5221 28.5967C56.7248 27.8482 55.6437 27.2675 54.1624 27.2675C51.4179 27.2675 49.2728 29.4771 49.2728 32.2217C49.2728 34.9662 51.4179 37.1787 54.161 37.1787C55.9405 37.1787 56.9528 36.4646 57.6024 35.8136C58.1344 35.2816 58.4828 34.5173 58.6176 33.4692H54.1639V31.6108H60.4329C60.4989 31.9435 60.5333 32.3421 60.5333 32.7737C60.5333 34.1689 60.1504 35.8996 58.9187 37.1314C57.72 38.3789 56.1914 39.0442 54.1624 39.0442C50.4027 39.0442 47.2439 35.9871 47.2439 32.226L47.2467 32.2231ZM65.6007 30.2615C63.1731 30.2615 61.1914 32.1084 61.1914 34.6507C61.1914 37.1801 63.1717 39.0399 65.6007 39.0399C68.0297 39.0399 70.0071 37.1772 70.0071 34.6493C70.0071 32.1069 68.0283 30.2601 65.6007 30.2615ZM65.6007 37.3135C64.2715 37.3135 63.1229 36.2165 63.1229 34.6521C63.1229 33.072 64.27 31.9908 65.6007 31.9908C66.9299 31.9908 68.0771 33.0705 68.0771 34.6521C68.0771 36.2151 66.9314 37.3135 65.6007 37.3135ZM75.215 30.2615C72.7874 30.2615 70.8086 32.1084 70.8086 34.6507C70.8086 37.1801 72.7874 39.0399 75.215 39.0399C77.6426 39.0399 79.6214 37.1772 79.6214 34.6493C79.6214 32.1069 77.6441 30.2601 75.215 30.2615ZM75.215 37.3135C73.8858 37.3135 72.7373 36.2165 72.7373 34.6521C72.7373 33.072 73.8844 31.9908 75.215 31.9908C76.5443 31.9908 77.6928 33.0705 77.6928 34.6521C77.6928 36.2151 76.5443 37.3135 75.215 37.3135ZM87.0146 30.5282V31.2423H86.9487C86.5171 30.7247 85.6854 30.2601 84.6387 30.2601C82.4434 30.2601 80.4287 32.1901 80.4287 34.6693C80.4287 37.1285 82.4419 39.0428 84.6387 39.0428C85.6854 39.0428 86.5171 38.5782 86.9487 38.0462H87.0146V38.6771C87.0146 40.3562 86.117 41.2553 84.6702 41.2553C83.4887 41.2553 82.7574 40.4064 82.4577 39.6938L80.7772 40.3921C81.2589 41.555 82.5409 42.986 84.6688 42.986C86.9286 42.986 88.8414 41.6539 88.8414 38.4118V30.5268L87.0146 30.5282ZM84.8036 37.3135C83.4743 37.3135 82.3573 36.1979 82.3573 34.6693C82.3573 33.1236 83.4729 31.9922 84.8036 31.9922C86.117 31.9922 87.148 33.1221 87.148 34.6693C87.1494 36.1979 86.1185 37.3135 84.8036 37.3135ZM90.1735 25.8709H92.1036V38.7761H90.1735V25.8709ZM97.3933 37.3135C96.4125 37.3135 95.7127 36.8632 95.2668 35.9842L101.137 33.5538L100.935 33.0548C100.571 32.0754 99.4552 30.2615 97.1767 30.2615C94.9155 30.2615 93.0356 32.041 93.0356 34.6521C93.0356 37.1113 94.8983 39.0413 97.3933 39.0413C99.4065 39.0413 100.571 37.8125 101.053 37.0955L99.5556 36.0989C99.0551 36.8317 98.3726 37.3149 97.3933 37.3135ZM97.2427 31.9578C98.007 31.9578 98.6551 32.3407 98.8716 32.8884L94.9456 34.5188C94.8968 32.8225 96.2605 31.9578 97.2427 31.9578Z" fill="white"/>
<path fill-rule="evenodd" clip-rule="evenodd" d="M109.606 25.8709H104.992V38.776H106.917V33.8878H109.607C111.742 33.8878 113.842 32.3421 113.842 29.8787C113.842 27.4195 111.744 25.8723 109.61 25.8723L109.606 25.8709ZM109.656 32.0912H106.917V27.6662H109.656C111.096 27.6662 111.916 28.8606 111.916 29.8787C111.916 30.8795 111.096 32.0912 109.656 32.0912ZM116.828 38.776V25.8709H114.903V38.776H116.828ZM125.479 38.7531V33.8061C125.479 31.5147 123.767 30.2371 121.557 30.2371C120.165 30.2371 118.721 30.8523 118.123 32.213L119.832 32.9257C120.198 32.213 120.878 31.9793 121.593 31.9793C122.588 31.9793 123.601 32.5773 123.616 33.6412V33.7746C123.268 33.5753 122.522 33.2756 121.608 33.2756C119.765 33.2756 117.889 34.2879 117.889 36.1806C117.889 37.9085 119.401 39.0198 121.094 39.0198C122.391 39.0198 123.103 38.439 123.551 37.7594H123.616V38.7559H125.478L125.479 38.7531ZM121.328 37.3106C120.697 37.3106 119.817 36.9951 119.817 36.2165C119.817 35.2199 120.914 34.8356 121.86 34.8356C122.707 34.8356 123.105 35.0178 123.621 35.2673C123.473 36.4258 122.494 37.2962 121.328 37.3106ZM132.251 30.5196L130.043 36.1133H129.977L127.686 30.5196H125.611L129.047 38.3401L127.087 42.6891H129.095L134.391 30.5196H132.251Z" fill="white"/>
</g>
<path d="M57.4326 21.6525H56.1269V19.212H48.9834V21.6593H47.6709L47.664 18.1388H48.4775C48.9059 17.6557 49.2454 17.0086 49.4961 16.1974C49.7513 15.3816 49.9108 14.4884 49.9746 13.5177L50.1933 9.25891H56.1474V18.1388H57.4463L57.4326 21.6525ZM49.9746 18.1388H54.8281V10.339H51.458L51.3144 13.2648C51.2552 14.4087 51.1025 15.3839 50.8564 16.1906C50.6149 16.9972 50.3209 17.6466 49.9746 18.1388ZM58.4716 15.4454C58.4716 14.7208 58.6129 14.0691 58.8955 13.4904C59.1826 12.9116 59.5791 12.465 60.0849 12.1505C60.5953 11.8361 61.1764 11.6788 61.8281 11.6788C62.8353 11.6788 63.6487 12.0275 64.2685 12.7247C64.8929 13.422 65.205 14.3494 65.205 15.507V15.5958C65.205 16.3159 65.0661 16.963 64.7881 17.5372C64.5146 18.1069 64.1204 18.5512 63.6054 18.8702C63.095 19.1892 62.5071 19.3488 61.8418 19.3488C60.8392 19.3488 60.0257 19.0001 59.4013 18.3029C58.7815 17.6056 58.4716 16.6827 58.4716 15.5343V15.4454ZM59.7431 15.5958C59.7431 16.4161 59.9323 17.0747 60.3105 17.5714C60.6933 18.0682 61.2037 18.3165 61.8418 18.3165C62.4843 18.3165 62.9948 18.0659 63.373 17.5646C63.7513 17.0587 63.9404 16.3523 63.9404 15.4454C63.9404 14.6342 63.7467 13.978 63.3593 13.4767C62.9765 12.9708 62.4661 12.7179 61.8281 12.7179C61.2037 12.7179 60.7002 12.9663 60.3174 13.463C59.9345 13.9598 59.7431 14.6707 59.7431 15.5958ZM69.7578 18.3165C70.209 18.3165 70.6032 18.1798 70.9404 17.9064C71.2776 17.6329 71.4645 17.2911 71.5009 16.881H72.6972C72.6744 17.3048 72.5286 17.7081 72.2597 18.0909C71.9909 18.4738 71.6308 18.7791 71.1797 19.007C70.733 19.2348 70.2591 19.3488 69.7578 19.3488C68.7506 19.3488 67.9485 19.0138 67.3515 18.3439C66.7591 17.6694 66.4629 16.7488 66.4629 15.5822V15.3702C66.4629 14.6502 66.595 14.0099 66.8593 13.4493C67.1237 12.8888 67.5019 12.4536 67.9941 12.1437C68.4909 11.8338 69.0765 11.6788 69.7509 11.6788C70.5804 11.6788 71.2685 11.9272 71.8154 12.424C72.3668 12.9207 72.6608 13.5656 72.6972 14.3585H71.5009C71.4645 13.88 71.2822 13.4881 70.9541 13.1827C70.6305 12.8728 70.2295 12.7179 69.7509 12.7179C69.1084 12.7179 68.6093 12.9503 68.2539 13.4152C67.903 13.8754 67.7275 14.5431 67.7275 15.4181V15.6573C67.7275 16.5096 67.903 17.1658 68.2539 17.6261C68.6048 18.0864 69.1061 18.3165 69.7578 18.3165ZM79.6152 12.8409H77.1338V19.212H75.8691V12.8409H73.4355V11.8156H79.6152V12.8409ZM83.3476 17.3595L85.0703 11.8156H86.4238L83.4502 20.3536C82.9899 21.5841 82.2584 22.1993 81.2558 22.1993L81.0166 22.1788L80.5449 22.09V21.0646L80.8867 21.0919C81.3151 21.0919 81.6478 21.0053 81.8847 20.8322C82.1263 20.659 82.3245 20.3422 82.4795 19.882L82.7597 19.13L80.1211 11.8156H81.5019L83.3476 17.3595ZM93.6084 19.212H92.3437V12.8615H88.9394V19.212H87.6679V11.8156H93.6084V19.212ZM101.682 19.212H100.417V16.0538H97.0195V19.212H95.748V11.8156H97.0195V15.0216H100.417V11.8156H101.682V19.212ZM103.384 15.4454C103.384 14.7208 103.525 14.0691 103.808 13.4904C104.095 12.9116 104.491 12.465 104.997 12.1505C105.507 11.8361 106.089 11.6788 106.74 11.6788C107.747 11.6788 108.561 12.0275 109.181 12.7247C109.805 13.422 110.117 14.3494 110.117 15.507V15.5958C110.117 16.3159 109.978 16.963 109.7 17.5372C109.427 18.1069 109.033 18.5512 108.518 18.8702C108.007 19.1892 107.419 19.3488 106.754 19.3488C105.751 19.3488 104.938 19.0001 104.313 18.3029C103.694 17.6056 103.384 16.6827 103.384 15.5343V15.4454ZM104.655 15.5958C104.655 16.4161 104.844 17.0747 105.223 17.5714C105.605 18.0682 106.116 18.3165 106.754 18.3165C107.396 18.3165 107.907 18.0659 108.285 17.5646C108.663 17.0587 108.853 16.3523 108.853 15.4454C108.853 14.6342 108.659 13.978 108.271 13.4767C107.889 12.9708 107.378 12.7179 106.74 12.7179C106.116 12.7179 105.612 12.9663 105.229 13.463C104.847 13.9598 104.655 14.6707 104.655 15.5958ZM115.292 19.212V11.8156H118.177C119.161 11.8156 119.915 11.9887 120.439 12.3351C120.968 12.6769 121.232 13.1805 121.232 13.8458C121.232 14.1876 121.13 14.4975 120.925 14.7755C120.72 15.049 120.417 15.2586 120.016 15.4044C120.462 15.5092 120.82 15.7143 121.089 16.0197C121.362 16.325 121.499 16.6896 121.499 17.1134C121.499 17.7924 121.248 18.312 120.747 18.672C120.25 19.032 119.546 19.212 118.635 19.212H115.292ZM116.557 15.965V18.1935H118.648C119.177 18.1935 119.571 18.0955 119.831 17.8995C120.095 17.7036 120.228 17.4279 120.228 17.0724C120.228 16.3341 119.685 15.965 118.601 15.965H116.557ZM116.557 14.9532H118.19C119.375 14.9532 119.968 14.6069 119.968 13.9142C119.968 13.2215 119.407 12.8637 118.286 12.8409H116.557V14.9532Z" fill="white"/>
<defs>
<clipPath id="clip0_3646:107">
<rect width="116.683" height="27.2972" fill="white" transform="translate(17.7083 19.3207)"/>
</clipPath>
</defs>
</svg>
