<svg width="160" height="59" viewBox="0 0 160 59" fill="none" xmlns="http://www.w3.org/2000/svg">
<rect x="0.00939941" y="6.10352e-05" width="159.792" height="59" rx="6" fill="black"/>
<path d="M38.4235 29.086C38.3903 25.3939 41.4411 23.5977 41.5806 23.5141C39.8528 20.9905 37.1748 20.6457 36.2337 20.6182C33.9845 20.3811 31.8028 21.9665 30.657 21.9665C29.4884 21.9665 27.724 20.6411 25.8224 20.6801C23.3754 20.7179 21.0862 22.1372 19.8307 24.3412C17.2396 28.8351 19.172 35.4391 21.6545 39.0715C22.8963 40.8517 24.3474 42.8369 26.2467 42.767C28.1048 42.6914 28.7989 41.5814 31.0412 41.5814C33.263 41.5814 33.9148 42.767 35.8518 42.7223C37.846 42.6914 39.1015 40.9353 40.2999 39.1403C41.7349 37.1024 42.3113 35.0931 42.3341 34.99C42.2884 34.974 38.4623 33.51 38.4235 29.086ZM34.7644 18.2286C35.7637 16.9766 36.4475 15.2732 36.2577 13.5446C34.8112 13.6087 33.0023 14.5469 31.9606 15.7715C31.0389 16.8506 30.2156 18.6193 30.4283 20.2826C32.0532 20.404 33.7215 19.4612 34.7644 18.2286Z" fill="white"/>
<path d="M65.3378 42.5104H62.7409L61.3185 38.0325H56.3741L55.0191 42.5104H52.4908L57.3906 27.2657H60.4163L65.3378 42.5104ZM60.8897 36.1539L59.6032 32.1732C59.4672 31.7665 59.211 30.8088 58.836 29.3013H58.7902C58.6393 29.9497 58.398 30.9073 58.0676 32.1732L56.8029 36.1539H60.8897ZM77.9137 36.879C77.9137 38.7485 77.4071 40.2262 76.3929 41.3111C75.4849 42.2767 74.3563 42.759 73.0105 42.759C71.5571 42.759 70.512 42.2401 69.8773 41.1999V46.9677H67.4395V35.1309C67.4395 33.9567 67.4086 32.7528 67.3491 31.5179H69.4931L69.6292 33.2603H69.675C70.488 31.9475 71.7218 31.2911 73.3775 31.2911C74.6719 31.2911 75.7525 31.8032 76.617 32.8284C77.4803 33.8559 77.9137 35.2054 77.9137 36.879ZM75.4301 36.9683C75.4301 35.8984 75.1899 35.0164 74.7074 34.321C74.1802 33.5982 73.4724 33.2362 72.5851 33.2362C71.9836 33.2362 71.437 33.4378 70.9488 33.8353C70.4594 34.2363 70.1392 34.7598 69.9894 35.4081C69.9225 35.6506 69.8845 35.9002 69.8762 36.1516V37.9856C69.8762 38.784 70.1209 39.4587 70.6103 40.0109C71.0997 40.5607 71.7355 40.8368 72.5176 40.8368C73.4358 40.8368 74.1505 40.4805 74.6616 39.7738C75.1739 39.0647 75.4301 38.1299 75.4301 36.9683ZM90.5342 36.879C90.5342 38.7485 90.0276 40.2262 89.0134 41.3111C88.1043 42.2767 86.9768 42.759 85.6298 42.759C84.1765 42.759 83.1313 42.2401 82.4967 41.1999V46.9677H80.0588V35.1309C80.0588 33.9567 80.028 32.7528 79.9685 31.5179H82.1125L82.2486 33.2603H82.2943C83.1062 31.9475 84.34 31.2911 85.9969 31.2911C87.2902 31.2911 88.3707 31.8032 89.2375 32.8284C90.0997 33.8559 90.5342 35.2054 90.5342 36.879ZM88.0494 36.9683C88.0494 35.8984 87.8081 35.0164 87.3256 34.321C86.7985 33.5982 86.0929 33.2362 85.2056 33.2362C84.6041 33.2362 84.0576 33.4378 83.567 33.8353C83.0776 34.2363 82.7586 34.7598 82.6088 35.4081C82.5344 35.7106 82.4944 35.9568 82.4944 36.1516V37.9856C82.4944 38.784 82.7403 39.4587 83.2274 40.0109C83.7168 40.5596 84.3526 40.8368 85.137 40.8368C86.0564 40.8368 86.771 40.4805 87.281 39.7738C87.7933 39.0647 88.0494 38.1299 88.0494 36.9683ZM104.645 38.2342C104.645 39.532 104.192 40.5871 103.292 41.4015C102.302 42.2905 100.919 42.7361 99.1468 42.7361C97.5094 42.7361 96.1967 42.4199 95.2064 41.7864L95.7701 39.7508C96.8393 40.3855 98.0136 40.7016 99.292 40.7016C100.211 40.7016 100.926 40.4931 101.436 40.0796C101.947 39.6649 102.206 39.1105 102.206 38.4186C102.206 37.7989 101.992 37.2799 101.572 36.8572C101.15 36.4357 100.453 36.0428 99.4727 35.6819C96.8084 34.6865 95.4751 33.2305 95.4751 31.3152C95.4751 30.0642 95.9462 29.0401 96.8862 28.2394C97.8261 27.4398 99.0725 27.04 100.623 27.04C102.008 27.04 103.162 27.2817 104.077 27.764L103.466 29.7549C102.604 29.2876 101.63 29.0539 100.542 29.0539C99.682 29.0539 99.0073 29.2658 98.5248 29.6874C98.1188 30.0642 97.913 30.5236 97.913 31.0689C97.913 31.6703 98.1474 32.1697 98.614 32.5615C99.0188 32.9223 99.7574 33.3153 100.825 33.7368C102.136 34.266 103.099 34.8823 103.715 35.5903C104.336 36.2982 104.645 37.1814 104.645 38.2342ZM112.726 33.3508H110.038V38.6878C110.038 40.0452 110.512 40.7223 111.461 40.7223C111.897 40.7223 112.258 40.6856 112.544 40.6088L112.611 42.4635C112.131 42.6433 111.499 42.7338 110.715 42.7338C109.753 42.7338 109 42.4394 108.457 41.8506C107.916 41.2618 107.644 40.2755 107.644 38.8871V33.3462H106.043V31.5133H107.644V29.5006L110.038 28.7767V31.5133H112.726V33.3508ZM124.826 36.9237C124.826 38.6133 124.343 40.0006 123.38 41.0854C122.373 42.2023 121.033 42.759 119.362 42.759C117.75 42.759 116.468 42.224 115.512 41.1553C114.556 40.0842 114.078 38.7348 114.078 37.107C114.078 35.4036 114.572 34.0083 115.557 32.9235C116.544 31.8375 117.872 31.2945 119.543 31.2945C121.153 31.2945 122.446 31.8306 123.425 32.9006C124.36 33.9384 124.826 35.2787 124.826 36.9237ZM122.299 36.9798C122.299 35.9729 122.081 35.1092 121.646 34.3863C121.135 33.5134 120.403 33.077 119.455 33.077C118.478 33.077 117.729 33.5134 117.219 34.3863C116.783 35.1092 116.565 35.9878 116.565 37.0256C116.565 38.0337 116.783 38.8997 117.219 39.6203C117.747 40.4931 118.482 40.9296 119.434 40.9296C120.366 40.9296 121.097 40.484 121.625 39.5985C122.073 38.8585 122.299 37.989 122.299 36.9798ZM132.753 33.6658C132.5 33.6199 132.243 33.5973 131.985 33.5982C131.127 33.5982 130.464 33.9212 129.998 34.5719C129.593 35.1447 129.389 35.8686 129.389 36.7427V42.5104H126.952V34.9797C126.954 33.8258 126.93 32.6719 126.881 31.5191H129.004L129.093 33.6223H129.161C129.419 32.8994 129.824 32.3164 130.38 31.8799C130.888 31.4985 131.506 31.292 132.142 31.2911C132.367 31.2911 132.571 31.3071 132.751 31.3358L132.753 33.6658ZM143.656 36.4941C143.663 36.8654 143.633 37.2364 143.567 37.6018H136.254C136.281 38.6878 136.636 39.5194 137.315 40.0922C137.931 40.6031 138.728 40.8597 139.707 40.8597C140.79 40.8597 141.778 40.6879 142.666 40.3408L143.048 42.035C142.01 42.4887 140.784 42.7143 139.37 42.7143C137.668 42.7143 136.333 42.2126 135.361 41.2114C134.391 40.2091 133.905 38.8619 133.905 37.1745C133.905 35.5181 134.357 34.1377 135.261 33.0369C136.208 31.8616 137.487 31.2739 139.097 31.2739C140.679 31.2739 141.876 31.8616 142.689 33.0369C143.333 33.9682 143.656 35.1229 143.656 36.4941ZM141.332 35.8606C141.349 35.1355 141.189 34.5112 140.858 33.9831C140.436 33.3027 139.787 32.9636 138.917 32.9636C138.12 32.9636 137.47 33.2946 136.976 33.959C136.57 34.4871 136.329 35.1218 136.255 35.8583L141.332 35.8606Z" fill="white"/>
<path d="M59.3754 12.593C59.3754 12.0643 59.1817 11.645 58.7944 11.3351C58.4116 11.0207 57.8715 10.8635 57.1743 10.8635C56.5909 10.8635 56.101 11.0252 55.7045 11.3488C55.3126 11.6678 55.1166 12.0643 55.1166 12.5383H53.8041C53.8041 12.0096 53.9477 11.5357 54.2348 11.1164C54.5265 10.6971 54.9321 10.3713 55.4516 10.1389C55.9711 9.90188 56.5453 9.78339 57.1743 9.78339C58.2862 9.78339 59.1498 10.034 59.7651 10.5353C60.3803 11.0321 60.6879 11.7248 60.6879 12.6135C60.6879 13.0738 60.5467 13.493 60.2641 13.8713C59.9815 14.2495 59.5873 14.548 59.0815 14.7668C60.2527 15.1587 60.8383 15.9357 60.8383 17.0978C60.8383 17.9911 60.5056 18.6997 59.8403 19.2238C59.1749 19.7479 58.2862 20.0099 57.1743 20.0099C56.5134 20.0099 55.9119 19.8937 55.3696 19.6613C54.8318 19.4243 54.4125 19.0894 54.1118 18.6564C53.811 18.2235 53.6606 17.7085 53.6606 17.1115H54.9731C54.9731 17.6356 55.1804 18.0731 55.5952 18.424C56.0099 18.7704 56.5362 18.9435 57.1743 18.9435C57.8898 18.9435 58.4594 18.7772 58.8832 18.4445C59.3116 18.1118 59.5258 17.6721 59.5258 17.1252C59.5258 15.9585 58.8035 15.3638 57.3588 15.341H56.1284V14.2609H57.352C58.0174 14.2473 58.5209 14.0969 58.8627 13.8098C59.2045 13.5226 59.3754 13.117 59.3754 12.593ZM66.9496 19.8732C66.8767 19.7274 66.8175 19.4676 66.7719 19.0939C66.184 19.7046 65.4822 20.0099 64.6664 20.0099C63.9373 20.0099 63.338 19.8049 62.8686 19.3947C62.4037 18.98 62.1713 18.4559 62.1713 17.8224C62.1713 17.0523 62.463 16.4553 63.0463 16.0314C63.6342 15.603 64.4591 15.3889 65.5209 15.3889H66.7514V14.8078C66.7514 14.3657 66.6192 14.0148 66.3549 13.7551C66.0906 13.4907 65.7009 13.3586 65.186 13.3586C64.7348 13.3586 64.3565 13.4725 64.0512 13.7004C63.7459 13.9282 63.5932 14.204 63.5932 14.5275H62.3217C62.3217 14.1584 62.4516 13.8029 62.7114 13.4611C62.9757 13.1148 63.3312 12.8413 63.7778 12.6408C64.2289 12.4403 64.7234 12.34 65.2612 12.34C66.1134 12.34 66.781 12.5542 67.2641 12.9826C67.7472 13.4064 67.9978 13.992 68.0161 14.7394V18.1437C68.0161 18.8228 68.1026 19.3628 68.2758 19.7639V19.8732H66.9496ZM64.851 18.9094C65.2475 18.9094 65.6235 18.8068 65.9789 18.6017C66.3344 18.3967 66.5919 18.1301 66.7514 17.8019V16.2844H65.7602C64.2107 16.2844 63.436 16.7378 63.436 17.6447C63.436 18.0412 63.5681 18.3511 63.8325 18.5744C64.0968 18.7977 64.4363 18.9094 64.851 18.9094ZM74.7768 13.5226H71.3657V19.8732H70.0942V12.4767H74.7768V13.5226ZM82.1254 16.257C82.1254 17.3827 81.8679 18.2896 81.353 18.9777C80.838 19.6659 80.1407 20.0099 79.2612 20.0099C78.3634 20.0099 77.657 19.7251 77.142 19.1555V22.717H75.8774V12.4767H77.0327L77.0942 13.2971C77.6092 12.659 78.3246 12.34 79.2407 12.34C80.1293 12.34 80.8312 12.675 81.3461 13.3449C81.8657 14.0148 82.1254 14.9468 82.1254 16.1408V16.257ZM80.8608 16.1135C80.8608 15.2795 80.683 14.621 80.3276 14.1379C79.9721 13.6548 79.4845 13.4133 78.8647 13.4133C78.0991 13.4133 77.5248 13.7528 77.142 14.4318V17.966C77.5203 18.6405 78.0991 18.9777 78.8784 18.9777C79.4845 18.9777 79.9653 18.7385 80.3207 18.2599C80.6808 17.7769 80.8608 17.0614 80.8608 16.1135ZM86.0766 18.0207L87.7993 12.4767H89.1528L86.1791 21.0148C85.7189 22.2453 84.9874 22.8605 83.9848 22.8605L83.7455 22.84L83.2739 22.7512V21.7258L83.6157 21.7531C84.044 21.7531 84.3767 21.6665 84.6137 21.4933C84.8552 21.3202 85.0535 21.0034 85.2084 20.5432L85.4887 19.7912L82.85 12.4767H84.2309L86.0766 18.0207ZM94.3549 14.5002C94.3549 14.1538 94.2228 13.8804 93.9584 13.6799C93.6941 13.4748 93.3318 13.3723 92.8715 13.3723C92.4249 13.3723 92.0512 13.4885 91.7504 13.7209C91.4542 13.9533 91.3061 14.2267 91.3061 14.5412H90.0483C90.0483 13.8986 90.3172 13.3723 90.8549 12.9621C91.3927 12.5519 92.0649 12.3469 92.8715 12.3469C93.7374 12.3469 94.4119 12.5337 94.895 12.9074C95.378 13.2766 95.6196 13.8052 95.6196 14.4933C95.6196 14.826 95.5193 15.1314 95.3188 15.4094C95.1183 15.6874 94.8334 15.9084 94.4643 16.0724C95.3256 16.3641 95.7563 16.9383 95.7563 17.7951C95.7563 18.4741 95.4942 19.0119 94.9702 19.4084C94.4461 19.8049 93.7465 20.0031 92.8715 20.0031C92.0193 20.0031 91.3152 19.7958 90.7592 19.381C90.2078 18.9618 89.9321 18.3967 89.9321 17.6857H91.1899C91.1899 18.0458 91.3494 18.3557 91.6684 18.6154C91.992 18.8706 92.393 18.9982 92.8715 18.9982C93.3546 18.9982 93.7442 18.8866 94.0405 18.6633C94.3367 18.44 94.4848 18.1506 94.4848 17.7951C94.4848 17.3804 94.3595 17.0842 94.1088 16.9064C93.8627 16.7241 93.4776 16.633 92.9536 16.633H91.6889V15.5666H93.0629C93.9243 15.5438 94.3549 15.1883 94.3549 14.5002ZM102.182 12.4767H103.447V19.8732H102.182V14.4797L98.7709 19.8732H97.5063V12.4767H98.7709V17.8771L102.182 12.4767ZM110.973 13.5021H108.492V19.8732H107.227V13.5021H104.793V12.4767H110.973V13.5021ZM114.726 20.0099C113.723 20.0099 112.908 19.6818 112.279 19.0256C111.65 18.3648 111.335 17.4829 111.335 16.3801V16.1476C111.335 15.4139 111.474 14.7599 111.752 14.1857C112.035 13.607 112.427 13.1558 112.928 12.8322C113.434 12.5041 113.981 12.34 114.569 12.34C115.53 12.34 116.278 12.6568 116.811 13.2902C117.344 13.9237 117.611 14.8306 117.611 16.0109V16.5373H112.6C112.618 17.2665 112.83 17.8566 113.236 18.3078C113.646 18.7544 114.165 18.9777 114.794 18.9777C115.241 18.9777 115.619 18.8866 115.929 18.7043C116.239 18.522 116.51 18.2805 116.743 17.9797L117.515 18.5812C116.895 19.5337 115.966 20.0099 114.726 20.0099ZM114.569 13.3791C114.058 13.3791 113.63 13.5659 113.284 13.9396C112.937 14.3088 112.723 14.8283 112.641 15.4982H116.346V15.4025C116.31 14.7599 116.136 14.2632 115.827 13.9123C115.517 13.5568 115.097 13.3791 114.569 13.3791ZM122.669 19.8732V12.4767H125.554C126.539 12.4767 127.293 12.6499 127.817 12.9963C128.345 13.3381 128.61 13.8417 128.61 14.507C128.61 14.8488 128.507 15.1587 128.302 15.4367C128.097 15.7101 127.794 15.9198 127.393 16.0656C127.84 16.1704 128.197 16.3755 128.466 16.6808C128.74 16.9862 128.876 17.3508 128.876 17.7746C128.876 18.4536 128.626 18.9732 128.124 19.3332C127.628 19.6932 126.924 19.8732 126.012 19.8732H122.669ZM123.934 16.6262V18.8547H126.026C126.554 18.8547 126.949 18.7567 127.208 18.5607C127.473 18.3648 127.605 18.0891 127.605 17.7336C127.605 16.9953 127.063 16.6262 125.978 16.6262H123.934ZM123.934 15.6144H125.568C126.753 15.6144 127.345 15.2681 127.345 14.5754C127.345 13.8827 126.785 13.5249 125.664 13.5021H123.934V15.6144Z" fill="white"/>
</svg>
